HIERARCHY
ROOT Hips
{
	OFFSET 0.000000 0.000000 0.000000
	CHANNELS 6 Xposition Yposition Zposition Zrotation Yrotation Xrotation 
	JOINT LHipJoint
	{
		OFFSET 0.000000 0.000000 0.000000
		CHANNELS 3 Zrotation Yrotation Xrotation
		JOINT LeftUpLeg
		{
			OFFSET 1.363060 -1.794630 0.839290
			CHANNELS 3 Zrotation Yrotation Xrotation
			JOINT LeftLeg
			{
				OFFSET 2.448110 -6.726130 0.000000
				CHANNELS 3 Zrotation Yrotation Xrotation
				JOINT LeftFoot
				{
					OFFSET 2.562200 -7.039590 0.000000
					CHANNELS 3 Zrotation Yrotation Xrotation
					JOINT LeftToeBase
					{
						OFFSET 0.157640 -0.433110 2.322550
						CHANNELS 3 Zrotation Yrotation Xrotation
						End Site
						{
							OFFSET 0.000000 0.000000 0.000000
						}
					}
				}
			}
		}
	}
	JOINT RHipJoint
	{
		OFFSET 0.000000 0.000000 0.000000
		CHANNELS 3 Zrotation Yrotation Xrotation
		JOINT RightUpLeg
		{
			OFFSET -1.305520 -1.794630 0.839290
			CHANNELS 3 Zrotation Yrotation Xrotation
			JOINT RightLeg
			{
				OFFSET -2.542530 -6.985550 0.000000
				CHANNELS 3 Zrotation Yrotation Xrotation
				JOINT RightFoot
				{
					OFFSET -2.568260 -7.056230 0.000000
					CHANNELS 3 Zrotation Yrotation Xrotation
					JOINT RightToeBase
					{
						OFFSET -0.164730 -0.452590 2.363150
						CHANNELS 3 Zrotation Yrotation Xrotation
						End Site
						{
							OFFSET 0.000000 0.000000 0.000000
						}
					}
				}
			}
		}
	}
	JOINT LowerBack
	{
		OFFSET 0.000000 0.000000 0.000000
		CHANNELS 3 Zrotation Yrotation Xrotation
		JOINT Spine
		{
			OFFSET 0.028270 2.035590 -0.193380
			CHANNELS 3 Zrotation Yrotation Xrotation
			JOINT Spine1
			{
				OFFSET 0.056720 2.048850 -0.042750
				CHANNELS 3 Zrotation Yrotation Xrotation
				JOINT Neck
				{
					OFFSET 0.000000 0.000000 0.000000
					CHANNELS 3 Zrotation Yrotation Xrotation
					JOINT Neck1
					{
						OFFSET -0.054170 1.746240 0.172020
						CHANNELS 3 Zrotation Yrotation Xrotation
						JOINT Head
						{
							OFFSET 0.104070 1.761360 -0.123970
							CHANNELS 3 Zrotation Yrotation Xrotation
							End Site
							{
								OFFSET 0.000000 0.000000 0.000000
							}
						}
					}
				}
				JOINT LeftShoulder
				{
					OFFSET 0.000000 0.000000 0.000000
					CHANNELS 3 Zrotation Yrotation Xrotation
					JOINT LeftArm
					{
						OFFSET 3.362410 1.200890 -0.311210
						CHANNELS 3 Zrotation Yrotation Xrotation
						JOINT LeftForeArm
						{
							OFFSET 4.983000 -0.000000 -0.000000
							CHANNELS 3 Zrotation Yrotation Xrotation
							JOINT LeftHand
							{
								OFFSET 3.483560 -0.000000 -0.000000
								CHANNELS 3 Zrotation Yrotation Xrotation
								JOINT LeftFingerBase
								{
									OFFSET 0.000000 0.000000 0.000000
									CHANNELS 3 Zrotation Yrotation Xrotation
									JOINT LeftHandIndex1
									{
										OFFSET 0.715260 -0.000000 -0.000000
										CHANNELS 3 Zrotation Yrotation Xrotation
										End Site
										{
											OFFSET 0.000000 0.000000 0.000000
										}
									}
								}
								JOINT LThumb
								{
									OFFSET 0.000000 0.000000 0.000000
									CHANNELS 3 Zrotation Yrotation Xrotation
									End Site
									{
										OFFSET 0.000000 0.000000 0.000000
									}
								}
							}
						}
					}
				}
				JOINT RightShoulder
				{
					OFFSET 0.000000 0.000000 0.000000
					CHANNELS 3 Zrotation Yrotation Xrotation
					JOINT RightArm
					{
						OFFSET -3.136600 1.374050 -0.404650
						CHANNELS 3 Zrotation Yrotation Xrotation
						JOINT RightForeArm
						{
							OFFSET -5.241900 -0.000000 -0.000000
							CHANNELS 3 Zrotation Yrotation Xrotation
							JOINT RightHand
							{
								OFFSET -3.444170 -0.000000 -0.000000
								CHANNELS 3 Zrotation Yrotation Xrotation
								JOINT RightFingerBase
								{
									OFFSET 0.000000 0.000000 0.000000
									CHANNELS 3 Zrotation Yrotation Xrotation
									JOINT RightHandIndex1
									{
										OFFSET -0.622530 -0.000000 -0.000000
										CHANNELS 3 Zrotation Yrotation Xrotation
										End Site
										{
											OFFSET 0.000000 0.000000 0.000000
										}
									}
								}
								JOINT RThumb
								{
									OFFSET 0.000000 0.000000 0.000000
									CHANNELS 3 Zrotation Yrotation Xrotation
									End Site
									{
										OFFSET 0.000000 0.000000 0.000000
									}
								}
							}
						}
					}
				}
			}
		}
	}
}
MOTION
Frames: 5
Frame Time: 0.008333
-0.556113 18.320280 5.710362 0.371503 -3.376777 3.662516 1.111412 3.514001 2.738869 -15.138935 -10.024475 -4.664914 0.569392 6.264298 20.730032 -0.956920 8.625080 -16.004092 8.272600 -16.316100 -53.538500 -4.078260 -4.086332 1.673077 16.221585 5.824939 4.048817 0.332713 0.831621 1.553839 0.368880 -6.129511 -13.464555 -0.141300 2.422400 -6.674500 1.940253 1.905512 -3.214719 -4.724601 1.751106 14.395390 0.514944 1.730601 -13.677662 -2.504174 -3.237332 -25.372656 4.229659 -4.069003 30.463112 0.774500 -1.331800 9.370900 2.494093 -7.380375 0.849373 -91.929992 7.516689 26.455535 22.493068 -30.994226 -5.283223 0.507965 -0.091688 10.647979 5.619213 -26.535814 -2.286900 -7.125000 0.000000 0.000000 -14.862900 4.071200 14.267900 -2.823591 9.196095 3.602936 93.612649 -14.298541 22.300918 -33.563775 40.951716 -10.183761 0.767815 -3.294701 18.017226 -6.804366 -39.449214 5.167800 7.125000 0.000000 0.000000 31.449900 -63.964100 -15.182800 
-0.555917 18.320378 5.710460 0.335156 -3.375925 3.684349 1.124839 3.513638 2.732717 -15.112822 -10.047863 -4.681179 0.570606 6.268875 20.742185 -0.953192 8.616724 -16.024726 8.278000 -16.319900 -53.557800 -4.065866 -4.083285 1.670768 16.247590 5.829108 4.035514 0.332415 0.830482 1.553418 0.370830 -6.133447 -13.446216 -0.139600 2.408100 -6.634800 1.914554 1.896860 -3.197615 -4.599944 1.736286 14.334321 0.480627 1.722244 -13.661187 -2.481291 -3.223953 -25.316157 4.144279 -4.032558 30.408371 0.758400 -1.326400 9.348100 2.465344 -7.380822 0.852191 -91.931878 7.542910 26.463088 22.538264 -31.038417 -5.299528 0.504785 -0.089603 10.545476 5.487505 -26.471706 -2.224200 -7.125000 0.000000 0.000000 -14.937900 4.145000 14.324100 -2.833930 9.199126 3.606371 93.588647 -14.295895 22.319745 -33.544112 40.925296 -10.166435 0.768258 -3.293172 18.019161 -6.816714 -39.344025 5.162400 7.125000 0.000000 0.000000 31.314200 -63.881300 -15.050800 
-0.555721 18.320378 5.710754 0.314118 -3.384394 3.698762 1.133176 3.512135 2.724590 -15.102040 -10.053911 -4.689338 0.572746 6.275061 20.758191 -0.950917 8.610639 -16.032382 8.283400 -16.323800 -53.577100 -4.059063 -4.079931 1.664976 16.262636 5.840254 4.028719 0.332270 0.829276 1.553053 0.371117 -6.133657 -13.441627 -0.139600 2.408200 -6.635200 1.902413 1.890633 -3.167028 -4.529797 1.726090 14.247747 0.462832 1.716163 -13.641609 -2.451755 -3.197895 -25.244540 4.084388 -3.986876 30.352817 0.748900 -1.312800 9.322900 2.441405 -7.382721 0.857051 -91.927426 7.591358 26.479039 22.593552 -31.091924 -5.319158 0.501233 -0.084979 10.468957 5.393263 -26.348030 -2.174600 -7.125000 0.000000 0.000000 -14.990100 4.270100 14.341800 -2.833328 9.203594 3.613039 93.582071 -14.314204 22.318326 -33.564122 40.939706 -10.179558 0.773812 -3.294448 18.006227 -6.707646 -39.433596 5.111200 7.125000 0.000000 0.000000 31.532200 -63.930200 -15.201700 
-0.555329 18.320476 5.711929 0.278734 -3.386768 3.683898 1.152534 3.517957 2.729193 -15.087429 -10.002443 -4.693495 0.576167 6.275968 20.768649 -0.954460 8.607430 -15.983856 8.295300 -16.332200 -53.619600 -4.040004 -4.080311 1.676321 16.279404 5.845067 4.036077 0.332211 0.829409 1.553008 0.372150 -6.142056 -13.446089 -0.142700 2.434400 -6.707800 1.859913 1.876979 -3.197272 -4.344635 1.704748 14.317831 0.403982 1.704218 -13.650274 -2.515028 -3.202705 -25.269772 4.110584 -3.981482 30.374009 0.761200 -1.309000 9.331800 2.422005 -7.378728 0.851102 -91.947139 7.605862 26.479298 22.632992 -31.137569 -5.334746 0.499864 -0.078802 10.439685 5.426783 -26.224332 -2.181600 -7.125000 0.000000 0.000000 -14.968200 4.381100 14.287200 -2.853029 9.202741 3.609924 93.552984 -14.303884 22.343167 -33.586012 40.960520 -10.197843 0.772157 -3.295052 17.966815 -6.733174 -39.563837 5.140100 7.125000 0.000000 0.000000 31.661000 -64.041600 -15.351800 
-0.555133 18.320672 5.713006 0.247673 -3.382748 3.677771 1.172597 3.523679 2.736357 -15.078160 -10.013700 -4.687483 0.576716 6.275447 20.775534 -0.959502 8.631218 -15.998952 8.306800 -16.340400 -53.660500 -4.018268 -4.081401 1.690627 16.287242 5.845342 4.034041 0.332253 0.829485 1.552798 0.375036 -6.161146 -13.450854 -0.142500 2.433200 -6.704300 1.796606 1.861177 -3.246355 -4.138871 1.679051 14.417024 0.346535 1.692385 -13.662661 -2.591585 -3.215097 -25.337027 4.136663 -3.982911 30.404944 0.773800 -1.308800 9.349200 2.404210 -7.372474 0.843377 -91.967385 7.588738 26.484141 22.643380 -31.153702 -5.340106 0.500269 -0.076500 10.416530 5.467464 -26.199135 -2.197900 -7.125000 0.000000 0.000000 -14.944100 4.399500 14.257100 -2.878871 9.200332 3.604422 93.525731 -14.276128 22.345479 -33.585524 40.964709 -10.204839 0.765544 -3.295677 17.969294 -6.818187 -39.656175 5.198500 7.125000 0.000000 0.000000 31.683500 -64.135200 -15.432500 
